<svg version="1.2" xmlns="http://www.w3.org/2000/svg" viewBox="0 0 2122 2122" width="2122" height="2122">
	<title>2f0814d8-06a0-465a-89b6-68626dc68ba9-ai</title>
	<style>
		.s0 { fill: #5ccaeb } 
		.s1 { fill: #499ad3 } 
		.s2 { fill: #bde4ed } 
		.s3 { fill: #31c3ec } 
		.s4 { fill: #3b8ac0 } 
		.s5 { fill: #a4dceb } 
		.s6 { fill: #55a7dc } 
		.s7 { fill: #80d3ef } 
	</style>
	<g id="Capa 2">
		<path id="&lt;Compound Path&gt;" fill-rule="evenodd" class="s0" d="m1556.3 1327.9c24.1 112.8 7.9 230.7-46.8 326.3q-10.3 18-22.3 34.7c-74 103.3-194.2 168-316.4 168h-1c-39.9-0.1-77.4-7.4-110.2-20.9-10.5-4.3-20.6-9.2-30-14.8-17 11.9-34.1 21.6-49.8 29.6-59 30-117 45.1-172.4 45.1h-1.3c-66.8-0.3-130.1-24.2-173.8-65.7-75.1-71.5-87.4-198.4-27.5-283 29.2-41.3 69.8-68.6 108.9-95 15.8-10.6 30.6-20.6 44.7-31.4q16.3-12.6 30.5-26.3c28.9-27.7 50.9-58.5 64.5-90.5 13-30.2 18.5-62.1 16.6-92.3-4.4-1.5-8.6-3.3-12.5-5.6-18-10.1-29.1-29.1-35-49.1-0.9-2.8-1.6-5.7-2.3-8.5-4.1-17.7-5.2-35.7-4.7-53.8-17.9-4.6-34.9-11.1-50.4-19.4-29.8-16-76.3-45.1-88.4-76.1-3.8-9.8-3-20.2 0.5-30-66.6-61.3-124.3-131.1-155.9-215.6q-2.8-7.4-5.2-14.9c-14.5-45-21.7-94.6-19.7-143.7 2.2-53.2 15.2-105.7 41.2-150.8 33.4-57.8 85.3-103 144.4-133.9q12.8-6.7 26-12.5c-0.7-5.3-1-10.5-0.7-15.5 0.6-15 8.4-26.7 19.7-35.4 18.6-14.5 46.7-21.1 67.8-21.5 31-0.6 46.4 15.4 50.4 36.7v0.1c8.8 46.8-37 119.4-91.5 100.7-4.1-1.5-8-3.4-11.6-5.7-8.1 4.8-16 9.6-23.9 14.6-47.7 30.1-91.7 64.8-119 116.3-31.3 59-39.5 129-24.8 194 18.1 80.8 59.7 148.8 114.6 207.2 10 10.6 20.4 20.9 31.2 30.9 11.9-6.8 25.3-10.2 37.5-3.9 18.7 9.7 29.5 30.5 43.4 44.5 40.9 41.3 101.5 44.9 148.3 17.8 26-15.2 53.2-53.3 85.8-57.1q1.1-0.1 2.2-0.2c4.3-0.3 8.5 0 12.5 1 10.7-9.8 21.1-19.9 31-30.4 56.2-58.9 98.8-127.8 117.2-209.8 14.6-65 6.5-135-24.9-194-26.1-49.2-67.4-83.1-112.7-112.2-9.9-6.4-20-12.6-30.1-18.7-3.6 2.3-7.5 4.2-11.7 5.7-57 19.6-104.5-60.9-89.9-107.1 5.7-18.1 21-30.9 48.9-30.4 22.6 0.5 53.1 7.9 71.6 24.6 9.2 8.4 15.4 19 15.9 32.3 0.2 5 0 10.2-0.7 15.5 12.2 5.4 24.2 11.3 35.9 17.9 54.9 30.6 103 74 134.4 128.5 34 58.9 45.7 130.5 40.3 199.8-2.6 32.6-9 64.7-18.7 94.7-1.7 5-3.4 10-5.3 14.9-31.8 85.4-90.5 155.8-158 217.6 2.6 10.1 2.7 20.1-0.3 28-12.1 31-58.6 60.1-88.4 76.1-11.2 6-23.2 11-35.7 15.1 0.7 6.5 1 13.1 1 19.7 0 4.7 0 9.7-0.2 14.7-0.9 31.7-6.2 66.6-34.8 82.5 0.6 9.6 0.7 19.4 0.2 29.1-1.6 31.3-8.9 63-21.8 93.1-22.5 52.8-62.4 102.1-115.2 142.7-15.7 12-32 23.1-47.9 33.7-36 24.3-69.9 47.2-92.3 78.8-41.3 58.3-32.5 149.2 19.3 198.5 31.8 30.2 79 47.6 129.4 47.9 45.4 0.3 93.8-12.6 144.1-38.1 8.6-4.4 17.6-9.3 26.7-15-0.8-1-1.7-2-2.5-3-6.9-8.3-12.9-17.3-18-26.8-27.9-51.7-29.2-117-0.4-162.7 18-28.8 50.3-47.1 84.1-47.8 32.9-0.8 62.3 14.3 81 41.4 21.1 30.5 24.7 72.6 10.1 115.7-10.8 31.4-28.3 58.1-49 80.6 25.5 10.8 55.3 16.6 87.5 16.7 20.6 0 41.1-2.2 61.3-6.4l0.3-0.1c90.2-19 173.2-79 221.7-163.6 42-73.5 57.4-162.8 44.9-250.7q-1.6-11.5-3.9-22.9-6.4 0.5-13 0.5c-79.5 0-144-64.4-144-143.9 0-79.5 64.5-144 144-144 79.5 0 143.9 64.5 143.9 144 0 52-27.6 97.6-68.9 122.9zm-488.2 288.1c-7.7-11.1-17.9-13.5-25.4-13.5h-0.8c-12.3 0.3-24.1 7-30.7 17.4-19 30.2-11.9 74.1 6 103.3 2.3 3.8 4.9 7.3 7.5 10.5 1.3 1.5 2.5 3 3.8 4.5 18-18 33.1-39.3 41.6-64.3 7.8-23.1 7.1-44.7-2-57.9z"/>
		<path id="&lt;Path&gt;" class="s1" d="m1049.9 922.3c-4-1-8.2-1.3-12.5-1q-1.1 0.1-2.2 0.2c-32.6 3.8-59.8 41.9-85.8 57.1-46.8 27.1-107.4 23.5-148.3-17.8-13.9-14-24.7-34.8-43.4-44.5-12.2-6.3-25.6-2.9-37.5 3.9-9.8 5.6-18.6 13.6-24.8 20.3-7.6 8.1-14.4 18.1-18.2 28.7-3.5 9.8-4.3 20.2-0.5 30 12.1 31 58.6 60.1 88.4 76.1 15.5 8.3 32.5 14.8 50.4 19.4-0.5 18.1 0.6 36.1 4.7 53.8 0.7 2.8 1.4 5.7 2.3 8.5 5.9 20 17 39 35 49.1 3.9 2.3 8.1 4.1 12.5 5.6 18 6 39.3 5.8 56.2-0.5q4.6-1.7 8.5-3.9c28.6-15.9 33.9-50.8 34.8-82.5 0.2-5 0.2-10 0.2-14.7 0-6.6-0.3-13.2-1-19.7 12.5-4.1 24.5-9.1 35.7-15.1 29.8-16 76.3-45.1 88.4-76.1 3-7.9 2.9-17.9 0.3-28-5.4-21.4-21.9-43.7-43.2-48.9z"/>
		<path id="&lt;Path&gt;" class="s1" d="m1481.3 1061c-79.5 0-144 64.5-144 144 0 79.5 64.5 143.9 144 143.9q6.6 0 13-0.5c22.6-2.1 43.6-9.3 62-20.5 41.3-25.3 68.9-70.9 68.9-122.9 0-79.5-64.4-144-143.9-144z"/>
		<path id="&lt;Compound Path&gt;" fill-rule="evenodd" class="s2" d="m1587.6 1205c0 14.1-2.8 27.6-7.8 39.9-6.2 15.3-15.8 28.8-28 39.6-18.8 16.6-43.5 26.8-70.5 26.8-58.7 0-106.3-47.6-106.3-106.3 0-30 12.4-57.1 32.4-76.4 19.1-18.5 45.2-29.9 73.9-29.9 2.3 0 4.6 0 6.9 0.2 55.5 3.6 99.4 49.7 99.4 106.1zm-39.8-20.9c-10.2-1.7-26-2.5-43.2-2.7-0.5-14.1-1.7-28.6-3.7-42.9-7.7-6.8-31.1-8.6-40.5 0-1.7 10.2-2.5 26-2.7 43.3-19.8 0.6-36.5 1.5-42.9 2.3-8.6 9.4-6.8 32.8 0 40.5 7.4 0.8 23.2 2.5 43.3 3.4 0.6 20 1.5 36.9 2.3 43.5 9.4 8.6 32.8 6.7 40.5 0 0.8-7.4 2.5-23.1 3.4-43.2 14.2-0.5 29-1.6 43.5-3.7 6.7-7.7 8.6-31.1 0-40.5z"/>
		<path id="&lt;Path&gt;" class="s1" d="m741.7 357q0.2 0.1 0.4 0.2c3.6 2.3 7.5 4.2 11.6 5.7 54.5 18.7 100.3-53.9 91.5-100.7v-0.1c-4-21.3-19.4-37.3-50.4-36.7-21.1 0.4-49.2 7-67.8 21.5-11.3 8.7-19.1 20.4-19.7 35.4-0.3 5 0 10.2 0.7 15.5 2.9 22.9 14.3 46.7 33.7 59.2z"/>
		<path id="&lt;Path&gt;" class="s1" d="m1018.7 362.9c4.2-1.5 8.1-3.4 11.7-5.7q0.2-0.1 0.4-0.2c19.3-12.5 30.7-36.3 33.7-59.2 0.7-5.3 0.9-10.5 0.7-15.5-0.5-13.3-6.7-23.9-15.9-32.3-18.5-16.7-49-24.1-71.6-24.6-27.9-0.5-43.2 12.3-48.9 30.4-14.6 46.2 32.9 126.7 89.9 107.1z"/>
		<path id="&lt;Path&gt;" class="s3" d="m1498.2 1371.3q1.6 0.4 3.2 0.9c25.7 8.6 37.6 34.1 41.5 59.3 11.3 72.1-6.1 153-35.7 218.7q-9 19.9-20 38.7 12-16.7 22.3-34.7c54.7-95.6 70.9-213.5 46.8-326.3-18.4 11.2-39.4 18.4-62 20.5q2.3 11.4 3.9 22.9z"/>
		<path id="&lt;Path&gt;" class="s3" d="m849.7 1348c14.4-18.4 24.3-39.7 36.3-59.8 11.9-20.1 26.5-39.6 47-50.8 0.6-0.4 1.3-0.7 1.9-1 0.5-9.7 0.4-19.5-0.2-29.1q-3.9 2.2-8.5 3.9c-16.9 6.3-38.2 6.5-56.2 0.5 1.9 30.2-3.6 62.1-16.6 92.3-13.6 32-35.6 62.8-64.5 90.5 23.7-10.2 44.9-26.2 60.8-46.5z"/>
		<path id="&lt;Path&gt;" class="s3" d="m1085 349.8c7-10.4 12.2-22 15.4-34.1-11.7-6.6-23.7-12.5-35.9-17.9-3 22.9-14.4 46.7-33.7 59.2q-0.2 0.1-0.4 0.2c10.1 6.1 20.2 12.3 30.1 18.7 9.5-7.4 17.7-16.2 24.5-26.1z"/>
		<path id="&lt;Path&gt;" class="s3" d="m718.2 371.8c7.9-5 15.8-9.8 23.9-14.6q-0.2-0.1-0.4-0.2c-19.4-12.5-30.8-36.3-33.7-59.2q-13.2 5.8-26 12.5c3 14 8.6 27.5 16.7 39.5 5.5 8.1 12.1 15.5 19.5 22z"/>
		<path id="&lt;Path&gt;" class="s3" d="m1093.1 971.2c67.5-61.8 126.2-132.2 158-217.6 1.9-4.9 3.6-9.9 5.3-14.9 9.7-30 16.1-62.1 18.7-94.7-4.9 22.5-11.5 44.7-19.8 66.2-31.8 82.1-88.1 159.8-174.4 181.7-9.9 10.5-20.3 20.6-31 30.4 21.3 5.2 37.8 27.5 43.2 48.9z"/>
		<path id="&lt;Path&gt;" class="s3" d="m720.2 920.2c-10.8-10-21.2-20.3-31.2-30.9-81.1-24.9-134.4-100-165-179.1-14.3-36.9-23.6-75.8-27.6-115.2-2 49.1 5.2 98.7 19.7 143.7q2.4 7.5 5.2 14.9c31.6 84.5 89.3 154.3 155.9 215.6 3.8-10.6 10.6-20.6 18.2-28.7 6.2-6.7 15-14.7 24.8-20.3z"/>
		<path id="&lt;Path&gt;" class="s4" d="m969.5 1124.8c0.2-5 0.2-10 0.2-14.7 0-6.6-0.3-13.2-1-19.7-48 15.6-103.8 17-153.2 4.3-0.5 18.1 0.6 36.1 4.7 53.8 0.7 2.8 1.4 5.7 2.3 8.5 27.8-14.3 59-22.6 90-27.6 18.7-3.1 38-5 57-4.6z"/>
		<path id="&lt;Compound Path&gt;" fill-rule="evenodd" class="s4" d="m1595.8 1206.8c0 63.2-51.3 114.5-114.5 114.5-63.3 0-114.5-51.3-114.5-114.5 0-63.3 51.2-114.5 114.5-114.5 63.2 0 114.5 51.2 114.5 114.5zm-8.2-1.8c0-56.4-43.9-102.5-99.4-106.1-2.3-0.2-4.6-0.2-6.9-0.2-28.7 0-54.8 11.4-73.9 29.9-20 19.3-32.4 46.4-32.4 76.4 0 58.7 47.6 106.3 106.3 106.3 27 0 51.7-10.2 70.5-26.8 12.2-10.8 21.8-24.3 28-39.6 5-12.3 7.8-25.8 7.8-39.9z"/>
		<path id="&lt;Path&gt;" class="s5" d="m1424.2 1270.4c-42.6-36.4-42-95.8-16.8-141.8-20 19.3-32.4 46.4-32.4 76.4 0 58.7 47.6 106.3 106.3 106.3 27 0 51.7-10.2 70.5-26.8-14.9 6.8-30.8 11-47 11.9-28.9 1.7-58.6-7.2-80.6-26z"/>
		<path id="&lt;Path&gt;" class="s5" d="m1488.2 1098.9c34.4 11.3 65 35.2 80.4 67.5 11.2 23.6 14.3 51.4 11.2 78.5 5-12.3 7.8-25.8 7.8-39.9 0-56.4-43.9-102.5-99.4-106.1z"/>
		<path id="&lt;Path&gt;" class="s4" d="m741.7 357q0.2 0.1 0.4 0.2c3.6 2.3 7.5 4.2 11.6 5.7 54.5 18.7 100.3-53.9 91.5-100.7-3.7 17.3-9.9 34-20.8 47.9-16.8 21.3-47.5 33.6-72 21.9-17.9-8.6-28.8-28.3-30.5-48.1-1.1-12.5 1-25 5.1-37-11.3 8.7-19.1 20.4-19.7 35.4-0.3 5 0 10.2 0.7 15.5 2.9 22.9 14.3 46.7 33.7 59.2z"/>
		<path id="&lt;Path&gt;" class="s4" d="m1064.5 297.8c0.7-5.3 0.9-10.5 0.7-15.5-0.5-13.3-6.7-23.9-15.9-32.3 3.3 11 5 22.5 4 33.9-1.7 19.8-12.6 39.5-30.5 48.1-24.5 11.7-55.2-0.6-72-21.9-12.2-15.5-18.5-34.6-22-54.3-14.6 46.2 32.9 126.7 89.9 107.1 4.2-1.5 8.1-3.4 11.7-5.7q0.2-0.1 0.4-0.2c19.3-12.5 30.7-36.3 33.7-59.2z"/>
		<path id="&lt;Path&gt;" class="s6" d="m982.1 290.2c8.6 2.2 17.1 1.9 24.3-0.3 1.6 4.8 6.1 8.2 11.4 8.2 6.7 0 12.1-5.4 12.1-12.1 0-4.2-2.2-8-5.5-10.1q1-2.1 1.6-4.5c3.9-15.5-9.5-32.2-29.9-37.3-20.3-5.1-40 3.4-43.9 18.9-3.8 15.4 9.5 32.1 29.9 37.2z"/>
		<path id="&lt;Path&gt;" class="s6" d="m745.7 286c0 6.7 5.4 12.1 12.1 12.1 5.3 0 9.8-3.4 11.4-8.2 7.2 2.2 15.7 2.5 24.3 0.3 20.4-5.1 33.8-21.8 29.9-37.2-3.9-15.5-23.6-24-43.9-18.9-20.4 5.1-33.8 21.8-29.9 37.3q0.6 2.4 1.6 4.5c-3.3 2.1-5.5 5.9-5.5 10.1z"/>
		<path id="&lt;Path&gt;" class="s6" d="m1027.9 943.3c0 0-88.4 115.2-208.5 70.2 0 0 134.6 78.8 208.5-70.2z"/>
		<path id="&lt;Path&gt;" class="s3" d="m1028.5 1738.2c-1.3-1.5-2.5-3-3.8-4.5-2.6-3.2-5.2-6.7-7.5-10.5-10.7 16.2-31.5 38.1-60.5 25 5.1 9.5 11.1 18.5 18 26.8 0.8 1 1.7 2 2.5 3 0 0 26.8-13.4 51.3-39.8z"/>
		<path id="&lt;Path&gt;" class="s3" d="m1231.3 1785.7c-20.2 4.2-40.7 6.4-61.3 6.4-32.2-0.1-62-5.9-87.5-16.7 0 0-18.1 24.1-52.9 45.8 9.4 5.6 19.5 10.5 30 14.8 33.5-16.7 70.1-27.4 106.8-35.2 21.6-4.6 43.9-8.4 64.9-15.1z"/>
		<path id="&lt;Path&gt;" class="s7" d="m1310.3 1789.2c0 0 142.2-17.8 181.2-205.6 0 0-32.6 137.9-181.2 205.6z"/>
		<path id="&lt;Path&gt;" class="s7" d="m1122.4 365.9c125.3 114.4 125.3 278.1 125.3 278.1 33.8-184.5-125.3-278.1-125.3-278.1z"/>
		<path id="&lt;Path&gt;" class="s7" d="m649.4 365.9c0 0-159.1 93.6-125.3 278.1 0 0 0-163.7 125.3-278.1z"/>
		<path id="&lt;Path&gt;" class="s7" d="m1087.8 1738.2c78.7-131.8-12.3-170.7-12.3-170.7 60.2 77.7 12.3 170.7 12.3 170.7z"/>
		<path id="&lt;Path&gt;" class="s7" d="m634.2 1541.3c0 0-99.8 120.7-4.2 257.2 0 0-57.8-142.8 4.2-257.2z"/>
	</g>
</svg>